<svg height="478pt" viewBox="-27 0 478 478.01641" width="478pt" xmlns="http://www.w3.org/2000/svg"><path d="m325.296875 243.710938c59.023437 12.597656 97.863281 69.1875 88.398437 128.792968-9.46875 59.605469-63.929687 101.375-123.953124 95.0625-60.019532-6.308594-104.605469-58.492187-101.46875-118.761718 3.132812-60.273438 52.890624-107.546876 113.246093-107.59375 7.992188-.007813 15.960938.832031 23.777344 2.5zm0 0" fill="#00acea"/><path d="m325.296875 109.570312v134.140626c-44.324219-9.488282-90.042969 8.324218-116.269531 45.300781-26.222656 36.972656-27.917969 86.011719-4.308594 124.707031l-.109375.070312h-160.601563c-18.777343 0-34-15.222656-34-34v-335.789062c0-18.777344 15.222657-34 34-34h175.449219l.742188.691406v64.878906c.003906 18.773438 15.222656 33.996094 34 34zm0 0" fill="#00efd1"/><path d="m325.296875 108.320312v1.25h-71.097656c-18.777344-.003906-33.996094-15.226562-34-34v-64.878906zm0 0" fill="#00acea"/><g fill="#083863"><path d="m335.296875 235.929688v-127.609376c0-2.78125-1.15625-5.433593-3.191406-7.328124l-105.089844-97.617188-.738281-.6875c-1.851563-1.726562-4.289063-2.6875-6.820313-2.6875h-175.449219c-24.289062.0273438-43.9726558 19.710938-43.9999995 44v335.789062c.0273437 24.289063 19.7109375 43.972657 43.9999995 44h155.328126c30.566406 45.15625 87.140624 64.894532 139.164062 48.558594 52.019531-16.339844 87.152344-64.878906 86.414062-119.402344-.738281-54.519531-37.171874-102.09375-89.617187-117.015624zm-105.097656-202.300782 70.988281 65.941406h-46.988281c-13.25-.015624-23.984375-10.75-24-24zm-210.191407 346.160156v-335.789062c.015626-13.25 10.75-23.984375 24-24h166.191407v55.570312c.027343 24.289063 19.710937 43.972657 44 44h61.097656v112.410157c-43.765625-4.898438-86.832031 13.890625-113.007813 49.308593-26.175781 35.417969-31.5 82.097657-13.972656 122.5h-144.308594c-13.25-.015624-23.984374-10.75-24-24zm281.511719 78.210938c-37.183593.367188-71.699219-19.261719-90.394531-51.402344-18.699219-32.140625-18.699219-71.84375 0-103.984375 18.695312-32.140625 53.210938-51.769531 90.394531-51.402343 56.707031.558593 102.382813 46.683593 102.382813 103.394531 0 56.710937-45.675782 102.835937-102.382813 103.394531zm0 0"/><path d="m354.019531 342.949219h-40.851562v-40.847657c0-5.523437-4.476563-10-10-10-5.523438 0-10 4.476563-10 10v40.847657h-40.839844c-5.523437 0-10 4.476562-10 10 0 5.523437 4.476563 10 10 10h40.839844v46.371093c0 5.523438 4.476562 10 10 10 5.523437 0 10-4.476562 10-10v-46.371093h40.851562c5.523438 0 10-4.476563 10-10 0-5.523438-4.476562-10-10-10zm0 0"/></g></svg>